# xmcd
#
# Track frame offsets: 
#        150
#        11376
#        22907
#        32307
#        41946
#        53588
#        63713
#        74815
#        84965
#        94951
#        105993
#        115435
#        125665
#        134844
#        145973
#        154074
#        173349
#        180581
#        195258
#        205938
#        220269
#        234209
#        245977
#        257154
#        266084
#
# Disc length: 3689 seconds
#
# Revision: 1
# Processed by: cddbd v1.5.2PL0 Copyright (c) Steve Scherf et al.
# Submitted via: ExactAudioCopyFreeDBPlugin 1.0
#
DISCID=670e6719
DTITLE=Various Artist - The Philly Sound Get Down:  Funky Philly Inst
DTITLE=rumentals
DYEAR=2005
DGENRE=Soul
TTITLE0=The Fabulous Emotions - Funky Chicken
TTITLE1=The Philly Four - Elephant Part 2
TTITLE2=The UFO's - Too Hot to Hold
TTITLE3=The Freedom Now Brothers - Sissy Walk
TTITLE4=The Freedom Now Brothers - It's Our Thing
TTITLE5=Willis Wooten Ork - Do the Train
TTITLE6=Bob Marshall and A.C.'s - Funky Fox
TTITLE7=The RDM Band - Butter That Popcorn (Virtue Studio acetate)
TTITLE8=Big Al T Ork - Twenty Five Miles
TTITLE9=Herman Pierce Inc. - Cool It (Virtue Studio acetate)
TTITLE10=The Panic Buttons - Hitch It to the Mule
TTITLE11=The Panic Buttons - Lovin' Horns
TTITLE12=The Panic Buttons - Come Out Smokin'
TTITLE13=The Panic Buttons - O Wow
TTITLE14=The Interpretations - Snap Out
TTITLE15=The Interpretations - Blow Your Mind
TTITLE16=The Brass Rail - Penguin Part 2
TTITLE17=The Assasins - Rope (Your Turn)
TTITLE18=The Soul Rockers - Soul for Sale
TTITLE19=The Radars (with Sonny Fulton) - Philly Soul Strut
TTITLE20=Norma and The Heartaches - Hot Pants Dance
TTITLE21=Norma and The Heartaches - Nice and Slow Part 2
TTITLE22=Psychedelic Frankie - Donna
TTITLE23=The Interpretations - Lineman
TTITLE24=The Fabulous Emotions - Bonus Funky Philly Beats (Virtue Stud
TTITLE24=io acetate)
EXTD=
EXTT0=
EXTT1=
EXTT2=
EXTT3=
EXTT4=
EXTT5=
EXTT6=
EXTT7=
EXTT8=
EXTT9=
EXTT10=
EXTT11=
EXTT12=
EXTT13=
EXTT14=
EXTT15=
EXTT16=
EXTT17=
EXTT18=
EXTT19=
EXTT20=
EXTT21=
EXTT22=
EXTT23=
EXTT24=
PLAYORDER=
